<svg width="21" height="22" viewBox="0 0 21 22" fill="none" xmlns="http://www.w3.org/2000/svg">
<path d="M16.5 17C17.0304 17 17.5391 17.2107 17.9142 17.5858C18.2893 17.9609 18.5 18.4696 18.5 19C18.5 19.5304 18.2893 20.0391 17.9142 20.4142C17.5391 20.7893 17.0304 21 16.5 21C15.39 21 14.5 20.1 14.5 19C14.5 17.89 15.39 17 16.5 17ZM0.5 1H3.77L4.71 3H19.5C19.7652 3 20.0196 3.10536 20.2071 3.29289C20.3946 3.48043 20.5 3.73478 20.5 4C20.5 4.17 20.45 4.34 20.38 4.5L16.8 10.97C16.46 11.58 15.8 12 15.05 12H7.6L6.7 13.63L6.67 13.75C6.67 13.8163 6.69634 13.8799 6.74322 13.9268C6.79011 13.9737 6.8537 14 6.92 14H18.5V16H6.5C5.39 16 4.5 15.1 4.5 14C4.5 13.65 4.59 13.32 4.74 13.04L6.1 10.59L2.5 3H0.5V1ZM6.5 17C7.03043 17 7.53914 17.2107 7.91421 17.5858C8.28929 17.9609 8.5 18.4696 8.5 19C8.5 19.5304 8.28929 20.0391 7.91421 20.4142C7.53914 20.7893 7.03043 21 6.5 21C5.39 21 4.5 20.1 4.5 19C4.5 17.89 5.39 17 6.5 17ZM15.5 10L18.28 5H5.64L8 10H15.5Z" fill="white" stroke="white"/>
</svg>
