<svg width="16" height="12" viewBox="0 0 16 12" fill="none" xmlns="http://www.w3.org/2000/svg">
<path d="M0.727273 0.846667L1.65818 0L13.8182 11.1467L12.8945 12L10.6545 9.94667C9.81818 10.2 8.93091 10.3333 8 10.3333C4.36364 10.3333 1.25818 8.26 0 5.33333C0.501818 4.16 1.30182 3.12667 2.32 2.30667L0.727273 0.846667ZM8 3.33333C8.57865 3.33333 9.13361 3.54405 9.54278 3.91912C9.95195 4.29419 10.1818 4.8029 10.1818 5.33333C10.1818 5.56667 10.1382 5.79333 10.0582 6L7.27273 3.44667C7.49818 3.37333 7.74545 3.33333 8 3.33333ZM8 0.333333C11.6364 0.333333 14.7418 2.40667 16 5.33333C15.4036 6.72 14.3927 7.92 13.0909 8.79333L12.0582 7.84C13.0473 7.21333 13.8618 6.36 14.4145 5.33333C13.2145 3.09333 10.7345 1.66667 8 1.66667C7.20727 1.66667 6.42909 1.78667 5.70182 2L4.58182 0.98C5.62909 0.566667 6.78545 0.333333 8 0.333333ZM1.58545 5.33333C2.78545 7.57333 5.26545 9 8 9C8.50182 9 8.99636 8.95333 9.45455 8.86L7.79636 7.33333C6.75636 7.23333 5.92727 6.47333 5.81818 5.52L3.34545 3.24667C2.62545 3.81333 2.02182 4.52 1.58545 5.33333Z" fill="#80838C"/>
</svg>
