<svg width="1080" height="1080" viewBox="0 0 1080 1080" fill="none" xmlns="http://www.w3.org/2000/svg">
<path d="M804.906 958.093H598.822L324.743 480.097H511.902L706.07 831.504L888.321 480.097H1060.06L804.906 958.093Z" fill="#F21616"/>
<path d="M290.464 913.105C317.604 933.542 345.782 950.932 378.609 963.758C378.956 963.893 379.349 963.825 379.63 963.58L469.888 884.87C470.248 884.555 470.336 884.029 470.096 883.615L192.687 404.098C192.302 403.431 192.783 402.597 193.553 402.597H549.298C549.642 402.597 549.963 402.775 550.145 403.067L705.831 651.867C705.871 651.932 705.967 651.929 706.003 651.861L839.969 403.123C840.144 402.799 840.482 402.597 840.85 402.597H958.248C958.513 402.597 958.768 402.491 958.956 402.303L989.918 371.241C990.238 370.921 990.302 370.426 990.076 370.034L950.405 301.523C950.405 301.523 930.377 261.995 920.363 252.113C910.349 242.231 890.322 252.113 890.322 252.113L770.156 302.116C770.156 302.116 713.543 264.604 680.474 251.757L661.052 115.582C658.952 103.25 647.929 94 634.806 94H424.841C411.718 94 400.695 103.25 398.596 115.582L379.174 251.757C346.104 264.604 317.759 282.075 290.464 302.116L159.76 250.73C148.212 246.105 134.04 250.73 127.741 262.035L22.758 439.833C15.9341 451.138 19.0836 465.012 29.0569 472.72L139.814 556.481L136.139 607.867L139.814 657.713L29.0569 743.015C19.0836 750.723 15.9341 764.597 22.758 775.902L127.741 953.7C134.04 965.005 148.212 969.116 159.76 965.005L290.464 913.105Z" fill="#F21616"/>
</svg>
