<svg width="1080" height="1080" viewBox="0 0 1080 1080" fill="none" xmlns="http://www.w3.org/2000/svg">
<rect width="1080" height="1080" rx="540" fill="white"/>
<path d="M783.722 883.973H604.189L365.424 467.563H528.468L697.62 773.693L856.39 467.563H1006L783.722 883.973Z" fill="#F21616"/>
<path d="M335.561 844.781C359.184 862.57 383.71 877.709 412.277 888.879C412.623 889.015 413.017 888.946 413.297 888.702L491.788 820.253C492.148 819.939 492.236 819.413 491.996 818.999L250.494 401.549C250.109 400.882 250.59 400.048 251.36 400.048H560.975C561.32 400.048 561.64 400.226 561.823 400.518L697.399 617.183C697.44 617.248 697.536 617.245 697.572 617.177L814.231 400.574C814.405 400.25 814.743 400.048 815.111 400.048H917.253C917.519 400.048 917.773 399.942 917.961 399.754L944.827 372.802C945.146 372.482 945.211 371.987 944.984 371.595L910.474 311.997C910.474 311.997 893.027 277.562 884.303 268.953C875.579 260.344 858.132 268.953 858.132 268.953L753.449 312.514C753.449 312.514 704.13 279.834 675.322 268.643L658.402 150.013C656.573 139.269 646.97 131.211 635.538 131.211H452.625C441.193 131.211 431.59 139.269 429.761 150.013L412.842 268.643C384.033 279.834 359.34 295.055 335.561 312.514L221.698 267.748C211.638 263.719 199.291 267.748 193.804 277.596L102.347 432.486C96.4025 442.335 99.1462 454.422 107.835 461.137L204.321 534.105L201.12 578.871L204.321 622.294L107.835 696.606C99.1462 703.32 96.4025 715.407 102.347 725.256L193.804 880.146C199.291 889.995 211.638 893.576 221.698 889.995L335.561 844.781Z" fill="#F21616"/>
</svg>
