<svg width="119" height="119" viewBox="0 0 119 119" fill="none" xmlns="http://www.w3.org/2000/svg">
<circle cx="59.5" cy="59.5" r="59.5" fill="#D9D9D9"/>
<path d="M59.5 37C62.4837 37 65.3452 38.1853 67.455 40.295C69.5647 42.4048 70.75 45.2663 70.75 48.25C70.75 51.2337 69.5647 54.0952 67.455 56.205C65.3452 58.3147 62.4837 59.5 59.5 59.5C56.5163 59.5 53.6548 58.3147 51.545 56.205C49.4353 54.0952 48.25 51.2337 48.25 48.25C48.25 45.2663 49.4353 42.4048 51.545 40.295C53.6548 38.1853 56.5163 37 59.5 37ZM59.5 42.625C58.0082 42.625 56.5774 43.2176 55.5225 44.2725C54.4676 45.3274 53.875 46.7582 53.875 48.25C53.875 49.7418 54.4676 51.1726 55.5225 52.2275C56.5774 53.2824 58.0082 53.875 59.5 53.875C60.9918 53.875 62.4226 53.2824 63.4775 52.2275C64.5324 51.1726 65.125 49.7418 65.125 48.25C65.125 46.7582 64.5324 45.3274 63.4775 44.2725C62.4226 43.2176 60.9918 42.625 59.5 42.625ZM59.5 62.3125C67.0094 62.3125 82 66.0531 82 73.5625V82H37V73.5625C37 66.0531 51.9906 62.3125 59.5 62.3125ZM59.5 67.6562C51.1469 67.6562 42.3438 71.7625 42.3438 73.5625V76.6563H76.6563V73.5625C76.6563 71.7625 67.8531 67.6562 59.5 67.6562Z" fill="#80838C"/>
</svg>
