<svg width="24" height="32" viewBox="0 0 24 32" fill="none" xmlns="http://www.w3.org/2000/svg">
<path d="M12 15.2C10.9392 15.2 9.92177 14.7786 9.17162 14.0284C8.42148 13.2783 8.00005 12.2609 8.00005 11.2C8.00005 10.1391 8.42148 9.12172 9.17162 8.37157C9.92177 7.62143 10.9392 7.2 12 7.2C13.0609 7.2 14.0783 7.62143 14.8285 8.37157C15.5786 9.12172 16.0001 10.1391 16.0001 11.2C16.0001 11.7253 15.8966 12.2454 15.6956 12.7307C15.4945 13.216 15.1999 13.657 14.8285 14.0284C14.457 14.3999 14.0161 14.6945 13.5308 14.8955C13.0455 15.0965 12.5253 15.2 12 15.2ZM12 0C9.02962 0 6.18086 1.18 4.08045 3.2804C1.98005 5.38081 0.800049 8.22958 0.800049 11.2C0.800049 19.6 12 32 12 32C12 32 23.2001 19.6 23.2001 11.2C23.2001 8.22958 22.0201 5.38081 19.9196 3.2804C17.8192 1.18 14.9705 0 12 0Z" fill="#F21616"/>
</svg>
