<svg width="136" height="38" viewBox="0 0 136 38" fill="none" xmlns="http://www.w3.org/2000/svg">
<path d="M12.1415 34.1093H10.0184L9.6671 35.0816H8.54447L10.4613 29.9716H11.7062L13.6231 35.0816H12.4928L12.1415 34.1093ZM11.8513 33.2905L11.0799 31.1559L10.3086 33.2905H11.8513Z" fill="white"/>
<path d="M24.596 29.9789V33.137C24.596 33.483 24.6902 33.7486 24.8786 33.9338C25.067 34.1142 25.3317 34.2043 25.6728 34.2043C26.0191 34.2043 26.2864 34.1142 26.4747 33.9338C26.6631 33.7486 26.7573 33.483 26.7573 33.137V29.9789H27.8341V33.1297C27.8341 33.5634 27.7348 33.9314 27.5363 34.2336C27.3428 34.5309 27.0806 34.7551 26.7497 34.9061C26.4238 35.0572 26.0598 35.1328 25.6576 35.1328C25.2604 35.1328 24.899 35.0572 24.5731 34.9061C24.2524 34.7551 23.9978 34.5309 23.8094 34.2336C23.621 33.9314 23.5269 33.5634 23.5269 33.1297V29.9789H24.596Z" fill="white"/>
<path d="M41.6973 29.9789V30.805H40.2768V35.0816H39.2076V30.805H37.7871V29.9789H41.6973Z" fill="white"/>
<path d="M54.1543 35.1328C53.6554 35.1328 53.1972 35.0207 52.7797 34.7965C52.3622 34.5723 52.0312 34.2628 51.7869 33.868C51.5425 33.4684 51.4203 33.0176 51.4203 32.5156C51.4203 32.0185 51.5425 31.5726 51.7869 31.1778C52.0312 30.7781 52.3622 30.4662 52.7797 30.242C53.1972 30.0179 53.6554 29.9058 54.1543 29.9058C54.6584 29.9058 55.1166 30.0179 55.529 30.242C55.9465 30.4662 56.2749 30.7781 56.5141 31.1778C56.7585 31.5726 56.8807 32.0185 56.8807 32.5156C56.8807 33.0176 56.7585 33.4684 56.5141 33.868C56.2749 34.2628 55.9465 34.5723 55.529 34.7965C55.1115 35.0207 54.6533 35.1328 54.1543 35.1328ZM54.1543 34.219C54.4751 34.219 54.7576 34.1507 55.002 34.0143C55.2464 33.8729 55.4373 33.6731 55.5748 33.4148C55.7123 33.1565 55.781 32.8568 55.781 32.5156C55.781 32.1745 55.7123 31.8772 55.5748 31.6237C55.4373 31.3654 55.2464 31.168 55.002 31.0316C54.7576 30.8951 54.4751 30.8269 54.1543 30.8269C53.8336 30.8269 53.5485 30.8951 53.299 31.0316C53.0546 31.168 52.8637 31.3654 52.7262 31.6237C52.5887 31.8772 52.52 32.1745 52.52 32.5156C52.52 32.8568 52.5887 33.1565 52.7262 33.4148C52.8637 33.6731 53.0546 33.8729 53.299 34.0143C53.5485 34.1507 53.8336 34.219 54.1543 34.219Z" fill="white"/>
<path d="M70.7659 31.5579C70.7659 31.8309 70.6972 32.0867 70.5598 32.3255C70.4274 32.5643 70.2161 32.7569 69.9259 32.9031C69.6408 33.0493 69.2793 33.1224 68.8414 33.1224H67.9479V35.0816H66.8787V29.9789H68.8414C69.2538 29.9789 69.6051 30.0471 69.8953 30.1836C70.1855 30.32 70.4019 30.5077 70.5445 30.7465C70.6921 30.9853 70.7659 31.2558 70.7659 31.5579ZM68.7956 32.2963C69.0909 32.2963 69.3098 32.2329 69.4524 32.1062C69.5949 31.9746 69.6662 31.7919 69.6662 31.5579C69.6662 31.0608 69.376 30.8123 68.7956 30.8123H67.9479V32.2963H68.7956Z" fill="white"/>
<path d="M81.7968 30.805V32.0843H83.5915V32.8958H81.7968V34.2482H83.8206V35.0816H80.7276V29.9716H83.8206V30.805H81.7968Z" fill="white"/>
<path d="M96.431 34.2116C96.7212 34.2116 96.9758 34.1507 97.1947 34.0289C97.4187 33.9022 97.5918 33.717 97.714 33.4733H98.9436C98.7857 33.9412 98.5133 34.3189 98.1264 34.6064C97.7446 34.8891 97.294 35.0572 96.7747 35.1108V35.4106C97.0547 35.4106 97.2889 35.4788 97.4773 35.6153C97.6707 35.7517 97.7675 35.9491 97.7675 36.2074C97.7675 36.4706 97.6682 36.6728 97.4696 36.8142C97.2761 36.9555 97.0369 37.0262 96.7517 37.0262H95.6673V36.4267H96.5761C96.6983 36.4267 96.7899 36.4097 96.851 36.3755C96.9172 36.3414 96.9503 36.2805 96.9503 36.1928C96.9503 36.1051 96.9172 36.0441 96.851 36.01C96.7899 35.9808 96.6983 35.9662 96.5761 35.9662H96.1026V35.1108C95.6495 35.0621 95.2422 34.9232 94.8807 34.6941C94.5243 34.4602 94.2443 34.1556 94.0406 33.7803C93.837 33.4051 93.7351 32.9859 93.7351 32.5229C93.7351 32.0209 93.8522 31.5726 94.0864 31.1778C94.3257 30.7781 94.649 30.4687 95.0563 30.2494C95.4687 30.0252 95.9295 29.9131 96.4386 29.9131C97.0343 29.9131 97.5562 30.0593 98.0042 30.3517C98.4522 30.6441 98.7654 31.0486 98.9436 31.5652H97.714C97.5918 31.3216 97.4187 31.1388 97.1947 31.017C96.9758 30.8951 96.7212 30.8342 96.431 30.8342C96.1204 30.8342 95.8429 30.9049 95.5986 31.0462C95.3593 31.1827 95.1709 31.3776 95.0334 31.631C94.901 31.8845 94.8349 32.1818 94.8349 32.5229C94.8349 32.8592 94.901 33.1565 95.0334 33.4148C95.1709 33.6682 95.3593 33.8656 95.5986 34.0069C95.8429 34.1434 96.1204 34.2116 96.431 34.2116Z" fill="white"/>
<path d="M112.328 34.1093H110.205L109.854 35.0816H108.731L110.648 29.9716H111.893L113.81 35.0816H112.679L112.328 34.1093ZM112.038 33.2905L111.266 31.1559L110.495 33.2905H112.038Z" fill="white"/>
<path d="M125.569 35.1328C125.197 35.1328 124.861 35.0718 124.561 34.95C124.266 34.8282 124.032 34.6527 123.858 34.4236C123.685 34.1946 123.596 33.9241 123.591 33.6122H124.737C124.752 33.8217 124.828 33.9875 124.966 34.1093C125.108 34.2311 125.302 34.2921 125.546 34.2921C125.796 34.2921 125.992 34.236 126.134 34.1239C126.277 34.0069 126.348 33.8559 126.348 33.6707C126.348 33.5196 126.3 33.3953 126.203 33.2978C126.106 33.2004 125.984 33.1248 125.836 33.0712C125.694 33.0127 125.495 32.9494 125.241 32.8811C124.895 32.7837 124.612 32.6886 124.393 32.596C124.179 32.4985 123.993 32.3548 123.836 32.1647C123.683 31.9698 123.606 31.7115 123.606 31.3898C123.606 31.0876 123.685 30.8244 123.843 30.6003C124.001 30.3761 124.222 30.2055 124.508 30.0885C124.793 29.9667 125.119 29.9058 125.485 29.9058C126.035 29.9058 126.48 30.0349 126.822 30.2932C127.168 30.5466 127.359 30.9024 127.394 31.3605H126.218C126.208 31.1851 126.129 31.0413 125.982 30.9292C125.839 30.8123 125.648 30.7538 125.409 30.7538C125.2 30.7538 125.032 30.805 124.905 30.9073C124.783 31.0096 124.721 31.1583 124.721 31.3532C124.721 31.4897 124.767 31.6042 124.859 31.6968C124.956 31.7846 125.073 31.8577 125.21 31.9161C125.353 31.9698 125.551 32.0331 125.806 32.1062C126.152 32.2037 126.435 32.3012 126.654 32.3986C126.873 32.4961 127.061 32.6423 127.219 32.8373C127.377 33.0322 127.455 33.2881 127.455 33.6049C127.455 33.8778 127.382 34.1312 127.234 34.3652C127.086 34.5991 126.87 34.7867 126.585 34.9281C126.3 35.0645 125.961 35.1328 125.569 35.1328Z" fill="white"/>
<path d="M19.9346 22.2134H14.7064L7.75336 9.92543H12.5014L17.4272 18.9591L22.0507 9.92543H26.4075L19.9346 22.2134Z" fill="#F21616"/>
<path d="M39.8313 19.9549H40.3293V22.4623H37.2173C36.3637 22.4623 35.8836 22.0355 35.7413 21.1997C35.4568 21.5376 34.9766 21.8755 34.2831 22.1778C33.5896 22.4801 32.6471 22.6224 31.4556 22.6224H31.2422C29.7841 22.6224 28.6993 22.3378 27.988 21.7688C27.2767 21.1997 26.9388 20.4884 26.9388 19.6171V19.4926C26.9388 18.6568 27.2233 18.0166 27.8279 17.572C28.4326 17.1453 29.4284 16.8607 30.8155 16.7362L35.0655 16.345C35.439 16.2917 35.6346 16.1316 35.6346 15.8649C35.6346 15.7048 35.599 15.5981 35.5279 15.4915C35.4568 15.4025 35.2256 15.3136 34.8522 15.2425C34.4787 15.1536 33.9274 15.1002 33.2339 15.1002L26.9388 15.118V12.9841H33.6251C34.6565 12.9841 35.5457 13.0374 36.2748 13.1619C37.0217 13.2864 37.5729 13.4464 37.9641 13.6243C38.3554 13.8199 38.6577 14.051 38.8711 14.3356C39.1022 14.6379 39.2267 14.8868 39.2801 15.118C39.3156 15.3492 39.3512 15.6337 39.3512 15.9538V19.4926C39.3512 19.7949 39.5113 19.9549 39.8313 19.9549ZM35.6346 18.3545V18.07L31.9713 18.639C31.4556 18.7101 31.1 18.8168 30.8866 18.9413C30.691 19.0658 30.5843 19.2436 30.5843 19.4926V19.5104C30.5843 19.7949 30.7088 20.0439 30.9755 20.2572C31.2422 20.4529 31.669 20.5596 32.2736 20.5596C33.2517 20.5596 34.0697 20.3284 34.6921 19.8838C35.3323 19.4392 35.6346 18.9413 35.6346 18.3545Z" fill="#F21616"/>
<path d="M49.1266 12.8952H53.3411V15.0113C53.3411 15.0113 47.9352 15.0113 47.4728 15.0647C47.0105 15.118 46.2992 15.527 45.9435 15.9538C45.5878 16.3806 45.41 16.8963 45.41 17.5365V22.2667H41.6045V13.0908H45.3922V14.709C45.5523 14.4778 45.7479 14.2289 45.9791 13.9977C46.228 13.7665 46.637 13.5176 47.2061 13.2686C47.7929 13.0196 48.4153 12.8952 49.1266 12.8952Z" fill="#F21616"/>
<path d="M67.1308 19.9549H67.6287V22.4623H64.5167C63.6631 22.4623 63.183 22.0355 63.0407 21.1997C62.7562 21.5376 62.276 21.8755 61.5825 22.1778C60.889 22.4801 59.9465 22.6224 58.755 22.6224H58.5417C57.0835 22.6224 55.9987 22.3378 55.2874 21.7688C54.5761 21.1997 54.2382 20.4884 54.2382 19.6171V19.4926C54.2382 18.6568 54.5227 18.0166 55.1273 17.572C55.732 17.1453 56.7278 16.8607 58.1149 16.7362L62.365 16.345C62.7384 16.2917 62.934 16.1316 62.934 15.8649C62.934 15.7048 62.8984 15.5981 62.8273 15.4915C62.7562 15.4025 62.525 15.3136 62.1516 15.2425C61.7781 15.1536 61.2269 15.1002 60.5333 15.1002L54.2382 15.118V12.9841H60.9245C61.9559 12.9841 62.8451 13.0374 63.5742 13.1619C64.3211 13.2864 64.8723 13.4464 65.2636 13.6243C65.6548 13.8199 65.9571 14.051 66.1705 14.3356C66.4017 14.6379 66.5261 14.8868 66.5795 15.118C66.615 15.3492 66.6506 15.6337 66.6506 15.9538V19.4926C66.6506 19.7949 66.8107 19.9549 67.1308 19.9549ZM62.934 18.3545V18.07L59.2707 18.639C58.755 18.7101 58.3994 18.8168 58.186 18.9413C57.9904 19.0658 57.8837 19.2436 57.8837 19.4926V19.5104C57.8837 19.7949 58.0082 20.0439 58.2749 20.2572C58.5417 20.4529 58.9684 20.5596 59.5731 20.5596C60.5511 20.5596 61.3691 20.3284 61.9915 19.8838C62.6317 19.4392 62.934 18.9413 62.934 18.3545Z" fill="#F21616"/>
<path d="M68.9039 13.3042H72.905V14.8335C74.1676 13.6776 75.7858 13.1086 77.7597 13.1086H77.902C79.4847 13.1086 80.6761 13.4464 81.4586 14.1222C82.2588 14.8157 82.65 15.6337 82.65 16.6118V22.2667H78.56V17.8388C78.56 17.1275 78.3466 16.5762 77.9198 16.185C77.4752 15.7938 76.8173 15.5981 75.9459 15.5981C75.039 15.5981 74.3099 15.8293 73.7586 16.2739C73.2251 16.7185 72.9406 17.3053 72.9406 18.0344V22.2667H68.9039V13.3042Z" fill="#F21616"/>
<path d="M95.6666 9.80095H99.7389V22.2134H95.7022V20.8441C95.6133 20.9686 95.4532 21.093 95.2576 21.2531C95.0442 21.3953 94.7597 21.5732 94.3863 21.751C93.995 21.9466 93.5149 22.1067 92.8925 22.2311C92.2701 22.3556 91.5944 22.4268 90.8653 22.4268H90.6341C88.5713 22.4268 87.0242 22 86.0105 21.1286C84.9791 20.275 84.4812 19.1547 84.4812 17.8032V17.4831C84.4812 16.1672 84.9614 15.1002 85.9216 14.2644C86.8997 13.4286 88.4112 13.0196 90.474 13.0196H90.7586C92.8569 13.0196 94.493 13.4998 95.6666 14.4423V9.80095ZM95.6666 17.6787C95.6666 17.0563 95.3287 16.5051 94.6708 16.0605C93.995 15.5981 93.1059 15.367 91.9678 15.367H91.8789C90.6874 15.367 89.8516 15.5804 89.3537 16.0249C88.8736 16.4517 88.6246 17.003 88.6246 17.6787V17.7321C88.6246 18.3545 88.8914 18.9058 89.4426 19.3681C89.9761 19.8305 90.8119 20.0616 91.9144 20.0616H92.0034C93.1415 20.0616 94.0306 19.8305 94.6886 19.3681C95.3465 18.9058 95.6666 18.3545 95.6666 17.7321V17.6787Z" fill="#F21616"/>
<path d="M114.089 19.9549H114.586V22.4623H111.474C110.621 22.4623 110.141 22.0355 109.998 21.1997C109.714 21.5376 109.234 21.8755 108.54 22.1778C107.847 22.4801 106.904 22.6224 105.713 22.6224H105.499C104.041 22.6224 102.956 22.3378 102.245 21.7688C101.534 21.1997 101.196 20.4884 101.196 19.6171V19.4926C101.196 18.6568 101.48 18.0166 102.085 17.572C102.69 17.1453 103.686 16.8607 105.073 16.7362L109.323 16.345C109.696 16.2917 109.892 16.1316 109.892 15.8649C109.892 15.7048 109.856 15.5981 109.785 15.4915C109.714 15.4025 109.483 15.3136 109.109 15.2425C108.736 15.1536 108.185 15.1002 107.491 15.1002L101.196 15.118V12.9841H107.882C108.914 12.9841 109.803 13.0374 110.532 13.1619C111.279 13.2864 111.83 13.4464 112.221 13.6243C112.613 13.8199 112.915 14.051 113.128 14.3356C113.359 14.6379 113.484 14.8868 113.537 15.118C113.573 15.3492 113.608 15.6337 113.608 15.9538V19.4926C113.608 19.7949 113.768 19.9549 114.089 19.9549ZM109.892 18.3545V18.07L106.229 18.639C105.713 18.7101 105.357 18.8168 105.144 18.9413C104.948 19.0658 104.841 19.2436 104.841 19.4926V19.5104C104.841 19.7949 104.966 20.0439 105.233 20.2572C105.499 20.4529 105.926 20.5596 106.531 20.5596C107.509 20.5596 108.327 20.3284 108.949 19.8838C109.589 19.4392 109.892 18.9413 109.892 18.3545Z" fill="#F21616"/>
<path d="M120.93 10.4056H117.658L116.022 8.25385H119.56L120.93 10.4056Z" fill="#F21616"/>
<path d="M128.798 22.569C124.601 22.569 122.521 21.5198 122.521 19.3859V19.2792H126.7C126.7 20.0972 127.535 20.5062 129.207 20.5062H129.243C129.936 20.5062 130.487 20.4529 130.879 20.3639C131.27 20.275 131.519 20.1861 131.625 20.0794C131.714 19.9549 131.768 19.8305 131.768 19.6526V19.6171C131.768 19.3681 131.625 19.1725 131.359 19.048C131.074 18.9235 130.505 18.8524 129.616 18.8346L127.873 18.7991C126.86 18.7813 125.988 18.6924 125.259 18.5145C124.548 18.3545 123.997 18.1233 123.623 17.8566C123.267 17.572 123.001 17.2875 122.841 16.9852C122.681 16.6829 122.61 16.3628 122.61 16.0072V15.9005C122.61 15.5981 122.645 15.3136 122.716 15.0647C122.805 14.8335 122.965 14.5667 123.232 14.3178C123.499 14.0688 123.837 13.8554 124.281 13.6776C124.708 13.5176 125.313 13.3753 126.077 13.2686C126.842 13.1619 127.749 13.1086 128.78 13.1086H129.509C133.599 13.1086 135.644 14.0333 135.644 15.9182V16.0427H131.501C131.483 15.9182 131.448 15.8293 131.394 15.7404C131.359 15.6693 131.252 15.5626 131.11 15.4559C130.967 15.3492 130.719 15.2781 130.381 15.2069C130.025 15.1536 129.598 15.118 129.1 15.118H129.082C128.158 15.118 127.535 15.1714 127.215 15.2781C126.913 15.367 126.753 15.5448 126.753 15.7938V15.8115C126.753 16.0427 126.895 16.2205 127.18 16.3272C127.482 16.4517 128.016 16.5229 128.798 16.5406L130.541 16.5762C132.017 16.594 133.155 16.7185 133.955 16.9496C134.773 17.1808 135.324 17.4831 135.591 17.8566C135.858 18.23 136 18.7457 136 19.3859V19.4926C136 19.9372 135.911 20.3462 135.733 20.684C135.555 21.0219 135.253 21.342 134.809 21.6443C134.364 21.9466 133.706 22.1778 132.817 22.3378C131.928 22.4979 130.843 22.569 129.545 22.569H128.798Z" fill="#F21616"/>
<path d="M6.88373 21.0569C7.41707 21.4639 7.9662 21.8238 8.57371 22.1187C8.91176 22.2827 9.31144 22.2081 9.593 21.9593L10.8417 20.8558C11.1968 20.542 11.2829 20.0222 11.048 19.6107L5.23519 9.42897C4.85459 8.76231 5.33598 7.93317 6.10362 7.93317H12.9064C13.2531 7.93317 13.575 8.11276 13.7572 8.40776L17.3319 14.1966C17.3725 14.2623 17.469 14.2592 17.5053 14.191L20.5492 8.46384C20.7228 8.13728 21.0625 7.93317 21.4323 7.93317H23.4255C23.6876 7.93317 23.9388 7.82792 24.1226 7.64105C24.4297 7.32882 24.4918 6.85044 24.2745 6.47016L23.6257 5.33485C23.6257 5.33485 23.1177 4.31868 22.8636 4.06464C22.6096 3.8106 22.1015 4.06464 22.1015 4.06464L19.053 5.35009C19.053 5.35009 17.6168 4.38575 16.7779 4.0555L16.2852 0.554824C16.2319 0.237782 15.9523 0 15.6194 0H10.2928C9.95984 0 9.6802 0.237782 9.62693 0.554824L9.13422 4.0555C8.29528 4.38575 7.57619 4.83489 6.88373 5.35009L3.56793 4.02908C3.27497 3.91019 2.91542 4.02908 2.75562 4.3197L0.0923253 8.89039C-0.080789 9.18101 -0.000889955 9.53769 0.252123 9.73584L3.0619 11.8891L2.96869 13.2101L3.0619 14.4915L0.252123 16.6843C-0.000889955 16.8825 -0.080789 17.2392 0.0923253 17.5298L2.75562 22.1005C2.91542 22.3911 3.27497 22.4968 3.56793 22.3911L6.88373 21.0569Z" fill="#F21616"/>
</svg>
