<svg width="339" height="93" viewBox="0 0 339 93" fill="none" xmlns="http://www.w3.org/2000/svg">
<path d="M30.2644 85.0225H24.9723L24.0967 87.4461H21.2983L26.0765 74.7086H29.1794L33.9575 87.4461H31.1401L30.2644 85.0225ZM29.5411 82.9816L27.6184 77.6606L25.6957 82.9816H29.5411Z" fill="#373740"/>
<path d="M61.3092 74.7268V82.5989C61.3092 83.4614 61.544 84.1235 62.0136 84.5851C62.4831 85.0346 63.1431 85.2594 63.9933 85.2594C64.8563 85.2594 65.5226 85.0346 65.9922 84.5851C66.4617 84.1235 66.6965 83.4614 66.6965 82.5989V74.7268H69.3806V82.5807C69.3806 83.6619 69.1332 84.5791 68.6382 85.3323C68.156 86.0733 67.5024 86.6321 66.6775 87.0087C65.8653 87.3853 64.9579 87.5736 63.9553 87.5736C62.9654 87.5736 62.0643 87.3853 61.2521 87.0087C60.4526 86.6321 59.8181 86.0733 59.3485 85.3323C58.8789 84.5791 58.6441 83.6619 58.6441 82.5807V74.7268H61.3092Z" fill="#373740"/>
<path d="M103.937 74.7268V76.7859H100.396V87.4461H97.7307V76.7859H94.19V74.7268H103.937Z" fill="#373740"/>
<path d="M134.988 87.5736C133.744 87.5736 132.602 87.2942 131.561 86.7354C130.52 86.1766 129.696 85.4052 129.086 84.4211C128.477 83.425 128.173 82.3013 128.173 81.05C128.173 79.8109 128.477 78.6993 129.086 77.7153C129.696 76.7191 130.52 75.9416 131.561 75.3828C132.602 74.824 133.744 74.5446 134.988 74.5446C136.244 74.5446 137.386 74.824 138.414 75.3828C139.455 75.9416 140.273 76.7191 140.87 77.7153C141.479 78.6993 141.784 79.8109 141.784 81.05C141.784 82.3013 141.479 83.425 140.87 84.4211C140.273 85.4052 139.455 86.1766 138.414 86.7354C137.374 87.2942 136.231 87.5736 134.988 87.5736ZM134.988 85.2958C135.787 85.2958 136.491 85.1257 137.101 84.7856C137.71 84.4333 138.186 83.9352 138.528 83.2913C138.871 82.6475 139.042 81.9004 139.042 81.05C139.042 80.1996 138.871 79.4586 138.528 78.8268C138.186 78.183 137.71 77.691 137.101 77.3508C136.491 77.0107 135.787 76.8406 134.988 76.8406C134.188 76.8406 133.477 77.0107 132.856 77.3508C132.246 77.691 131.77 78.183 131.428 78.8268C131.085 79.4586 130.914 80.1996 130.914 81.05C130.914 81.9004 131.085 82.6475 131.428 83.2913C131.77 83.9352 132.246 84.4333 132.856 84.7856C133.477 85.1257 134.188 85.2958 134.988 85.2958Z" fill="#373740"/>
<path d="M176.395 78.6628C176.395 79.3431 176.223 79.9809 175.881 80.5762C175.551 81.1715 175.024 81.6513 174.301 82.0158C173.59 82.3802 172.689 82.5624 171.597 82.5624H169.37V87.4461H166.705V74.7268H171.597C172.625 74.7268 173.501 74.8969 174.224 75.237C174.948 75.5772 175.487 76.0449 175.842 76.6401C176.211 77.2354 176.395 77.9096 176.395 78.6628ZM171.483 80.5033C172.219 80.5033 172.765 80.3454 173.12 80.0295C173.476 79.7015 173.653 79.246 173.653 78.6628C173.653 77.4237 172.93 76.8041 171.483 76.8041H169.37V80.5033H171.483Z" fill="#373740"/>
<path d="M203.891 76.7859V79.9749H208.364V81.9975H203.891V85.3687H208.935V87.4461H201.225V74.7086H208.935V76.7859H203.891Z" fill="#373740"/>
<path d="M240.368 85.2776C241.092 85.2776 241.726 85.1257 242.272 84.822C242.83 84.5062 243.262 84.0445 243.567 83.4371H246.631C246.238 84.6034 245.559 85.5449 244.594 86.2616C243.643 86.9662 242.52 87.3853 241.225 87.519V88.2661C241.923 88.2661 242.507 88.4362 242.976 88.7763C243.459 89.1165 243.7 89.6085 243.7 90.2523C243.7 90.9083 243.452 91.4125 242.957 91.7648C242.475 92.1171 241.879 92.2932 241.168 92.2932H238.465V90.799H240.73C241.035 90.799 241.263 90.7565 241.415 90.6714C241.58 90.5864 241.663 90.4346 241.663 90.2159C241.663 89.9972 241.58 89.8454 241.415 89.7603C241.263 89.6874 241.035 89.651 240.73 89.651H239.55V87.519C238.42 87.3975 237.405 87.0513 236.504 86.4803C235.616 85.8972 234.918 85.1379 234.41 84.2025C233.902 83.267 233.649 82.2223 233.649 81.0682C233.649 79.8169 233.941 78.6993 234.524 77.7153C235.121 76.7191 235.927 75.9477 236.942 75.401C237.97 74.8422 239.118 74.5628 240.387 74.5628C241.872 74.5628 243.173 74.9272 244.29 75.6561C245.407 76.385 246.187 77.3933 246.631 78.6811H243.567C243.262 78.0736 242.83 77.6181 242.272 77.3144C241.726 77.0107 241.092 76.8588 240.368 76.8588C239.594 76.8588 238.903 77.035 238.293 77.3873C237.697 77.7274 237.227 78.2133 236.885 78.8451C236.555 79.4768 236.39 80.2178 236.39 81.0682C236.39 81.9064 236.555 82.6475 236.885 83.2913C237.227 83.9231 237.697 84.4151 238.293 84.7674C238.903 85.1075 239.594 85.2776 240.368 85.2776Z" fill="#373740"/>
<path d="M279.994 85.0225H274.702L273.826 87.4461H271.028L275.806 74.7086H278.909L283.687 87.4461H280.87L279.994 85.0225ZM279.271 82.9816L277.348 77.6606L275.425 82.9816H279.271Z" fill="#373740"/>
<path d="M313 87.5736C312.073 87.5736 311.235 87.4218 310.487 87.1181C309.751 86.8144 309.167 86.377 308.735 85.806C308.304 85.2351 308.082 84.5608 308.069 83.7834H310.925C310.963 84.3057 311.153 84.7188 311.496 85.0225C311.851 85.3262 312.333 85.478 312.942 85.478C313.564 85.478 314.053 85.3383 314.408 85.0589C314.764 84.7674 314.941 84.3908 314.941 83.9291C314.941 83.5525 314.821 83.2428 314.58 82.9998C314.338 82.7568 314.034 82.5685 313.666 82.4349C313.31 82.2891 312.816 82.1312 312.181 81.9611C311.318 81.7181 310.614 81.4812 310.068 81.2504C309.535 81.0075 309.072 80.6491 308.678 80.1753C308.298 79.6894 308.107 79.0455 308.107 78.2437C308.107 77.4905 308.304 76.8345 308.697 76.2757C309.091 75.7169 309.643 75.2917 310.353 75.0001C311.064 74.6964 311.876 74.5446 312.79 74.5446C314.161 74.5446 315.271 74.8665 316.121 75.5103C316.984 76.1421 317.46 77.0289 317.549 78.1708H314.618C314.592 77.7335 314.396 77.3751 314.027 77.0957C313.672 76.8041 313.196 76.6584 312.6 76.6584C312.079 76.6584 311.661 76.7859 311.343 77.041C311.039 77.2961 310.887 77.6667 310.887 78.1526C310.887 78.4928 311.001 78.7782 311.229 79.0091C311.47 79.2277 311.762 79.41 312.105 79.5557C312.46 79.6894 312.955 79.8473 313.59 80.0295C314.453 80.2725 315.157 80.5155 315.703 80.7584C316.248 81.0014 316.718 81.3658 317.111 81.8518C317.505 82.3377 317.702 82.9755 317.702 83.7651C317.702 84.4454 317.517 85.0771 317.149 85.6603C316.781 86.2434 316.242 86.7111 315.531 87.0634C314.821 87.4036 313.977 87.5736 313 87.5736Z" fill="#373740"/>
<path d="M49.6899 55.37H36.658L19.3264 24.7405H31.1615L43.4399 47.2583L54.9648 24.7405H65.8247L49.6899 55.37Z" fill="#373740"/>
<path d="M99.2855 49.7406H100.527V55.9906H92.7695C90.6419 55.9906 89.4451 54.9267 89.0905 52.8434C88.3812 53.6856 87.1844 54.5278 85.4557 55.2813C83.727 56.0349 81.3777 56.3895 78.4078 56.3895H77.8759C74.2411 56.3895 71.5372 55.6803 69.7642 54.2618C67.9911 52.8434 67.1489 51.0703 67.1489 48.8984V48.5881C67.1489 46.5047 67.8582 44.909 69.3653 43.8008C70.8723 42.737 73.3546 42.0278 76.8121 41.7175L87.4061 40.7423C88.3369 40.6093 88.8245 40.2104 88.8245 39.5455C88.8245 39.1466 88.7358 38.8806 88.5585 38.6147C88.3812 38.393 87.805 38.1714 86.8741 37.9941C85.9433 37.7725 84.5692 37.6395 82.8404 37.6395L67.1489 37.6838V32.3646H83.8156C86.3866 32.3646 88.6029 32.4976 90.4202 32.8079C92.2819 33.1182 93.6561 33.5171 94.6312 33.9604C95.6064 34.448 96.36 35.0242 96.8919 35.7334C97.4681 36.487 97.7784 37.1076 97.9114 37.6838C98 38.26 98.0887 38.9693 98.0887 39.7671V48.5881C98.0887 49.3416 98.4876 49.7406 99.2855 49.7406ZM88.8245 45.7512V45.042L79.6933 46.4604C78.4078 46.6377 77.5213 46.9037 76.9894 47.214C76.5018 47.5242 76.2358 47.9675 76.2358 48.5881V48.6324C76.2358 49.3416 76.5461 49.9622 77.211 50.4941C77.8759 50.9817 78.9397 51.2476 80.4468 51.2476C82.8848 51.2476 84.9238 50.6714 86.4752 49.5632C88.071 48.4551 88.8245 47.214 88.8245 45.7512Z" fill="#373740"/>
<path d="M122.455 32.143H132.961V37.4178C132.961 37.4178 119.485 37.4178 118.333 37.5508C117.181 37.6838 115.407 38.7033 114.521 39.7671C113.634 40.831 113.191 42.1164 113.191 43.7122V55.503H103.705V32.6306H113.147V36.6643C113.546 36.0881 114.033 35.4675 114.61 34.8912C115.23 34.315 116.25 33.6944 117.668 33.0739C119.131 32.4533 120.682 32.143 122.455 32.143Z" fill="#373740"/>
<path d="M167.333 49.7406H168.574V55.9906H160.817C158.69 55.9906 157.493 54.9267 157.138 52.8434C156.429 53.6856 155.232 54.5278 153.503 55.2813C151.775 56.0349 149.425 56.3895 146.456 56.3895H145.924C142.289 56.3895 139.585 55.6803 137.812 54.2618C136.039 52.8434 135.197 51.0703 135.197 48.8984V48.5881C135.197 46.5047 135.906 44.909 137.413 43.8008C138.92 42.737 141.402 42.0278 144.86 41.7175L155.454 40.7423C156.385 40.6093 156.872 40.2104 156.872 39.5455C156.872 39.1466 156.784 38.8806 156.606 38.6147C156.429 38.393 155.853 38.1714 154.922 37.9941C153.991 37.7725 152.617 37.6395 150.888 37.6395L135.197 37.6838V32.3646H151.863C154.434 32.3646 156.651 32.4976 158.468 32.8079C160.33 33.1182 161.704 33.5171 162.679 33.9604C163.654 34.448 164.408 35.0242 164.94 35.7334C165.516 36.487 165.826 37.1076 165.959 37.6838C166.048 38.26 166.136 38.9693 166.136 39.7671V48.5881C166.136 49.3416 166.535 49.7406 167.333 49.7406ZM156.872 45.7512V45.042L147.741 46.4604C146.456 46.6377 145.569 46.9037 145.037 47.214C144.55 47.5242 144.284 47.9675 144.284 48.5881V48.6324C144.284 49.3416 144.594 49.9622 145.259 50.4941C145.924 50.9817 146.988 51.2476 148.495 51.2476C150.933 51.2476 152.972 50.6714 154.523 49.5632C156.119 48.4551 156.872 47.214 156.872 45.7512Z" fill="#373740"/>
<path d="M171.753 33.1625H181.727V36.9746C184.874 34.0934 188.907 32.6749 193.828 32.6749H194.182C198.127 32.6749 201.097 33.5171 203.047 35.2015C205.042 36.9303 206.017 38.9693 206.017 41.4072V55.503H195.822V44.4657C195.822 42.6927 195.29 41.3186 194.227 40.3434C193.118 39.3682 191.478 38.8806 189.306 38.8806C187.046 38.8806 185.228 39.4569 183.854 40.565C182.524 41.6732 181.815 43.1359 181.815 44.9533V55.503H171.753V33.1625Z" fill="#373740"/>
<path d="M238.463 24.4302H248.614V55.37H238.552V51.9569C238.33 52.2672 237.931 52.5774 237.444 52.9764C236.912 53.331 236.202 53.7742 235.272 54.2175C234.296 54.7051 233.1 55.104 231.548 55.4143C229.997 55.7246 228.312 55.9019 226.495 55.9019H225.919C220.777 55.9019 216.921 54.8381 214.394 52.6661C211.823 50.5384 210.582 47.7459 210.582 44.3771V43.5792C210.582 40.2991 211.779 37.6395 214.172 35.5561C216.61 33.4728 220.378 32.4533 225.52 32.4533H226.229C231.46 32.4533 235.538 33.6501 238.463 35.9994V24.4302ZM238.463 44.0668C238.463 42.5154 237.621 41.1413 235.981 40.0331C234.296 38.8806 232.08 38.3044 229.243 38.3044H229.022C226.052 38.3044 223.968 38.8363 222.727 39.9444C221.53 41.0083 220.91 42.3824 220.91 44.0668V44.1998C220.91 45.7512 221.575 47.1253 222.949 48.2778C224.279 49.4303 226.362 50.0065 229.11 50.0065H229.332C232.169 50.0065 234.385 49.4303 236.025 48.2778C237.665 47.1253 238.463 45.7512 238.463 44.1998V44.0668Z" fill="#373740"/>
<path d="M284.382 49.7406H285.624V55.9906H277.866C275.739 55.9906 274.542 54.9267 274.187 52.8434C273.478 53.6856 272.281 54.5278 270.553 55.2813C268.824 56.0349 266.475 56.3895 263.505 56.3895H262.973C259.338 56.3895 256.634 55.6803 254.861 54.2618C253.088 52.8434 252.246 51.0703 252.246 48.8984V48.5881C252.246 46.5047 252.955 44.909 254.462 43.8008C255.969 42.737 258.452 42.0278 261.909 41.7175L272.503 40.7423C273.434 40.6093 273.921 40.2104 273.921 39.5455C273.921 39.1466 273.833 38.8806 273.655 38.6147C273.478 38.393 272.902 38.1714 271.971 37.9941C271.04 37.7725 269.666 37.6395 267.937 37.6395L252.246 37.6838V32.3646H268.913C271.483 32.3646 273.7 32.4976 275.517 32.8079C277.379 33.1182 278.753 33.5171 279.728 33.9604C280.703 34.448 281.457 35.0242 281.989 35.7334C282.565 36.487 282.875 37.1076 283.008 37.6838C283.097 38.26 283.186 38.9693 283.186 39.7671V48.5881C283.186 49.3416 283.585 49.7406 284.382 49.7406ZM273.921 45.7512V45.042L264.79 46.4604C263.505 46.6377 262.618 46.9037 262.086 47.214C261.599 47.5242 261.333 47.9675 261.333 48.5881V48.6324C261.333 49.3416 261.643 49.9622 262.308 50.4941C262.973 50.9817 264.037 51.2476 265.544 51.2476C267.982 51.2476 270.021 50.6714 271.572 49.5632C273.168 48.4551 273.921 47.214 273.921 45.7512Z" fill="#373740"/>
<path d="M301.435 25.9373H293.279L289.201 20.5739H298.022L301.435 25.9373Z" fill="#373740"/>
<path d="M321.048 56.2565C310.587 56.2565 305.401 53.6413 305.401 48.3221V48.0562H315.817C315.817 50.0952 317.901 51.1147 322.067 51.1147H322.156C323.885 51.1147 325.259 50.9817 326.234 50.7601C327.209 50.5384 327.83 50.3168 328.096 50.0508C328.317 49.7406 328.45 49.4303 328.45 48.987V48.8984C328.45 48.2778 328.096 47.7902 327.431 47.4799C326.722 47.1696 325.303 46.9923 323.087 46.948L318.743 46.8593C316.216 46.815 314.044 46.5934 312.227 46.1501C310.454 45.7512 309.08 45.1749 308.149 44.51C307.262 43.8008 306.597 43.0916 306.199 42.3381C305.8 41.5845 305.622 40.7866 305.622 39.9001V39.6342C305.622 38.8806 305.711 38.1714 305.888 37.5508C306.11 36.9746 306.509 36.3097 307.174 35.6891C307.839 35.0685 308.681 34.5366 309.789 34.0934C310.853 33.6944 312.36 33.3398 314.266 33.0739C316.172 32.8079 318.433 32.6749 321.004 32.6749H322.821C333.016 32.6749 338.113 34.9799 338.113 39.6785V39.9888H327.785C327.741 39.6785 327.652 39.4569 327.52 39.2352C327.431 39.0579 327.165 38.792 326.81 38.526C326.456 38.26 325.835 38.0827 324.993 37.9054C324.106 37.7725 323.043 37.6838 321.801 37.6838H321.757C319.452 37.6838 317.901 37.8168 317.103 38.0827C316.349 38.3044 315.95 38.7476 315.95 39.3682V39.4125C315.95 39.9888 316.305 40.432 317.014 40.698C317.768 41.0083 319.098 41.1856 321.048 41.2299L325.392 41.3186C329.071 41.3629 331.908 41.6732 333.902 42.2494C335.941 42.8257 337.316 43.5792 337.981 44.51C338.645 45.4409 339 46.7264 339 48.3221V48.5881C339 49.6962 338.778 50.7157 338.335 51.5579C337.892 52.4001 337.138 53.198 336.03 53.9516C334.922 54.7051 333.282 55.2813 331.066 55.6803C328.849 56.0792 326.145 56.2565 322.91 56.2565H321.048Z" fill="#373740"/>
<path d="M17.1587 52.4874C18.727 53.6841 20.3501 54.7177 22.2022 55.5142C22.5474 55.6626 22.9456 55.5907 23.2272 55.3418L27.9344 51.1821C28.2895 50.8683 28.3756 50.3484 28.1407 49.9369L11.7748 21.2704C11.3942 20.6037 11.8756 19.7746 12.6432 19.7746H33.0036C33.3503 19.7746 33.6722 19.9542 33.8544 20.2492L43.339 35.6086C43.3796 35.6743 43.4761 35.6711 43.5124 35.603L51.643 20.3053C51.8166 19.9787 52.1562 19.7746 52.5261 19.7746H58.9938C59.2619 19.7746 59.5187 19.667 59.7067 19.4759L60.8925 18.2704C61.2066 17.9511 61.2701 17.4619 61.0479 17.073L58.8906 13.2979C58.8906 13.2979 57.6242 10.765 56.9909 10.1317C56.3577 9.49849 55.0913 10.1317 55.0913 10.1317L47.4925 13.3359C47.4925 13.3359 43.9125 10.9321 41.8214 10.1089L40.5932 1.38298C40.4604 0.592706 39.7634 0 38.9335 0H25.6562C24.8264 0 24.1293 0.592706 23.9965 1.38298L22.7684 10.1089C20.6772 10.9321 18.8848 12.0517 17.1587 13.3359L8.89359 10.0431C8.16333 9.74672 7.26712 10.0431 6.8688 10.7675L0.230134 22.1606C-0.201379 22.885 -0.00221834 23.7741 0.628455 24.268L7.63224 29.6353L7.39989 32.9281L7.63224 36.1221L0.628455 41.5882C-0.00221834 42.0821 -0.201379 42.9712 0.230134 43.6956L6.8688 55.0887C7.26712 55.8131 8.16333 56.0765 8.89359 55.8131L17.1587 52.4874Z" fill="#373740"/>
</svg>
