<svg width="191" height="52" viewBox="0 0 191 52" fill="none" xmlns="http://www.w3.org/2000/svg">
<path d="M17.0517 47.9035H14.07L13.5766 49.269H12L14.6921 42.0924H16.4403L19.1324 49.269H17.5451L17.0517 47.9035ZM16.6441 46.7536L15.5609 43.7556L14.4776 46.7536H16.6441Z" fill="#0D0D0D"/>
<path d="M34.543 42.1027V46.538C34.543 47.024 34.6753 47.397 34.9398 47.6571C35.2044 47.9103 35.5762 48.037 36.0553 48.037C36.5415 48.037 36.9169 47.9103 37.1815 47.6571C37.446 47.397 37.5783 47.024 37.5783 46.538V42.1027H39.0906V46.5277C39.0906 47.1369 38.9512 47.6537 38.6723 48.078C38.4006 48.4956 38.0324 48.8104 37.5676 49.0226C37.11 49.2348 36.5987 49.3409 36.0338 49.3409C35.4761 49.3409 34.9685 49.2348 34.5108 49.0226C34.0604 48.8104 33.7028 48.4956 33.4383 48.078C33.1737 47.6537 33.0414 47.1369 33.0414 46.5277V42.1027H34.543Z" fill="#0D0D0D"/>
<path d="M58.5602 42.1027V43.2628H56.5652V49.269H55.0637V43.2628H53.0687V42.1027H58.5602Z" fill="#0D0D0D"/>
<path d="M76.055 49.3409C75.3543 49.3409 74.7108 49.1834 74.1244 48.8686C73.5381 48.5537 73.0733 48.1191 72.7301 47.5647C72.3869 47.0034 72.2153 46.3703 72.2153 45.6653C72.2153 44.9671 72.3869 44.3409 72.7301 43.7864C73.0733 43.2252 73.5381 42.7871 74.1244 42.4723C74.7108 42.1574 75.3543 42 76.055 42C76.7629 42 77.4064 42.1574 77.9856 42.4723C78.5719 42.7871 79.0331 43.2252 79.3692 43.7864C79.7124 44.3409 79.884 44.9671 79.884 45.6653C79.884 46.3703 79.7124 47.0034 79.3692 47.5647C79.0331 48.1191 78.5719 48.5537 77.9856 48.8686C77.3993 49.1834 76.7557 49.3409 76.055 49.3409ZM76.055 48.0575C76.5055 48.0575 76.9023 47.9617 77.2455 47.77C77.5888 47.5715 77.8569 47.2909 78.05 46.9281C78.243 46.5654 78.3395 46.1444 78.3395 45.6653C78.3395 45.1862 78.243 44.7687 78.05 44.4127C77.8569 44.05 77.5888 43.7728 77.2455 43.5811C76.9023 43.3895 76.5055 43.2936 76.055 43.2936C75.6045 43.2936 75.2041 43.3895 74.8538 43.5811C74.5105 43.7728 74.2424 44.05 74.0494 44.4127C73.8563 44.7687 73.7598 45.1862 73.7598 45.6653C73.7598 46.1444 73.8563 46.5654 74.0494 46.9281C74.2424 47.2909 74.5105 47.5715 74.8538 47.77C75.2041 47.9617 75.6045 48.0575 76.055 48.0575Z" fill="#0D0D0D"/>
<path d="M99.3846 44.3203C99.3846 44.7036 99.288 45.063 99.095 45.3984C98.9091 45.7337 98.6123 46.0041 98.2048 46.2094C97.8044 46.4148 97.2967 46.5175 96.6818 46.5175H95.4269V49.269H93.9253V42.1027H96.6818C97.2609 42.1027 97.7543 42.1985 98.1619 42.3901C98.5694 42.5818 98.8733 42.8453 99.0735 43.1807C99.2809 43.5161 99.3846 43.896 99.3846 44.3203ZM96.6174 45.3573C97.0321 45.3573 97.3396 45.2683 97.5398 45.0903C97.74 44.9055 97.8401 44.6489 97.8401 44.3203C97.8401 43.6222 97.4325 43.2731 96.6174 43.2731H95.4269V45.3573H96.6174Z" fill="#0D0D0D"/>
<path d="M114.876 43.2628V45.0595H117.397V46.1992H114.876V48.0986H117.719V49.269H113.375V42.0924H117.719V43.2628H114.876Z" fill="#0D0D0D"/>
<path d="M135.429 48.0472C135.836 48.0472 136.194 47.9617 136.501 47.7906C136.816 47.6126 137.059 47.3525 137.231 47.0103H138.958C138.736 47.6674 138.353 48.1978 137.81 48.6016C137.274 48.9986 136.641 49.2348 135.912 49.3101V49.731C136.305 49.731 136.634 49.8268 136.898 50.0185C137.17 50.2101 137.306 50.4873 137.306 50.8501C137.306 51.2197 137.166 51.5038 136.888 51.7023C136.616 51.9008 136.28 52 135.879 52H134.356V51.1581H135.633C135.804 51.1581 135.933 51.1342 136.019 51.0862C136.112 51.0383 136.158 50.9528 136.158 50.8296C136.158 50.7064 136.112 50.6208 136.019 50.5729C135.933 50.5318 135.804 50.5113 135.633 50.5113H134.968V49.3101C134.331 49.2416 133.759 49.0465 133.252 48.7248C132.751 48.3963 132.358 47.9685 132.072 47.4415C131.786 46.9144 131.643 46.3258 131.643 45.6756C131.643 44.9706 131.807 44.3409 132.136 43.7864C132.472 43.2252 132.926 42.7906 133.498 42.4825C134.077 42.1677 134.725 42.0103 135.44 42.0103C136.276 42.0103 137.009 42.2156 137.638 42.6263C138.268 43.037 138.707 43.6051 138.958 44.3306H137.231C137.059 43.9884 136.816 43.7317 136.501 43.5606C136.194 43.3895 135.836 43.3039 135.429 43.3039C134.993 43.3039 134.603 43.4031 134.26 43.6016C133.924 43.7933 133.659 44.0671 133.466 44.423C133.28 44.7789 133.187 45.1964 133.187 45.6756C133.187 46.1478 133.28 46.5654 133.466 46.9281C133.659 47.2841 133.924 47.5613 134.26 47.7598C134.603 47.9514 134.993 48.0472 135.429 48.0472Z" fill="#0D0D0D"/>
<path d="M157.755 47.9035H154.773L154.28 49.269H152.703L155.395 42.0924H157.143L159.836 49.269H158.248L157.755 47.9035ZM157.347 46.7536L156.264 43.7556L155.181 46.7536H157.347Z" fill="#0D0D0D"/>
<path d="M176.351 49.3409C175.829 49.3409 175.357 49.2553 174.935 49.0842C174.52 48.9131 174.191 48.6667 173.948 48.345C173.705 48.0233 173.58 47.6434 173.573 47.2053H175.182C175.203 47.4997 175.31 47.7324 175.503 47.9035C175.704 48.0746 175.975 48.1602 176.319 48.1602C176.669 48.1602 176.944 48.0815 177.144 47.924C177.345 47.7598 177.445 47.5476 177.445 47.2875C177.445 47.0753 177.377 46.9008 177.241 46.7639C177.105 46.627 176.934 46.5209 176.726 46.4456C176.526 46.3634 176.247 46.2745 175.89 46.1786C175.403 46.0418 175.007 45.9083 174.699 45.7782C174.399 45.6413 174.138 45.4394 173.916 45.1725C173.702 44.8987 173.594 44.5359 173.594 44.0842C173.594 43.6598 173.705 43.2902 173.927 42.9754C174.148 42.6605 174.46 42.4209 174.86 42.2567C175.26 42.0856 175.718 42 176.233 42C177.005 42 177.631 42.1814 178.11 42.5441C178.596 42.9001 178.864 43.3997 178.914 44.0431H177.262C177.248 43.7967 177.137 43.5948 176.93 43.4374C176.73 43.2731 176.462 43.191 176.126 43.191C175.832 43.191 175.596 43.2628 175.418 43.4066C175.246 43.5503 175.16 43.7591 175.16 44.0329C175.16 44.2245 175.225 44.3854 175.353 44.5154C175.489 44.6386 175.654 44.7413 175.847 44.8234C176.047 44.8987 176.326 44.9877 176.683 45.0903C177.17 45.2272 177.566 45.3641 177.874 45.501C178.181 45.6379 178.446 45.8433 178.667 46.117C178.889 46.3908 179 46.7502 179 47.1951C179 47.5784 178.896 47.9343 178.689 48.2628C178.482 48.5914 178.178 48.8549 177.777 49.0534C177.377 49.245 176.901 49.3409 176.351 49.3409Z" fill="#0D0D0D"/>
<path d="M27.9964 31.1967H20.6539L10.8889 13.9394H17.5571L24.475 26.6264L30.9683 13.9394H37.0871L27.9964 31.1967Z" fill="#F21616"/>
<path d="M55.9396 28.025H56.6389V31.5463H52.2684C51.0696 31.5463 50.3953 30.947 50.1955 29.7732C49.7959 30.2477 49.1216 30.7222 48.1476 31.1468C47.1736 31.5713 45.85 31.7711 44.1767 31.7711H43.877C41.8291 31.7711 40.3056 31.3715 39.3067 30.5723C38.3077 29.7732 37.8332 28.7742 37.8332 27.5504V27.3756C37.8332 26.2018 38.2328 25.3027 39.0819 24.6784C39.931 24.079 41.3296 23.6794 43.2776 23.5046L49.2465 22.9551C49.7709 22.8802 50.0457 22.6555 50.0457 22.2808C50.0457 22.0561 49.9957 21.9062 49.8958 21.7564C49.7959 21.6315 49.4712 21.5066 48.9468 21.4067C48.4223 21.2819 47.6481 21.2069 46.6741 21.2069L37.8332 21.2319V18.235H47.2235C48.6721 18.235 49.9208 18.3099 50.9447 18.4847C51.9937 18.6596 52.7679 18.8843 53.3173 19.1341C53.8667 19.4088 54.2913 19.7335 54.591 20.133C54.9157 20.5576 55.0905 20.9072 55.1654 21.2319C55.2154 21.5566 55.2653 21.9562 55.2653 22.4057V27.3756C55.2653 27.8002 55.4901 28.025 55.9396 28.025ZM50.0457 25.7773V25.3777L44.9009 26.1768C44.1767 26.2767 43.6772 26.4266 43.3775 26.6014C43.1028 26.7762 42.9529 27.026 42.9529 27.3756V27.4006C42.9529 27.8002 43.1277 28.1498 43.5024 28.4495C43.877 28.7242 44.4764 28.8741 45.3255 28.8741C46.6991 28.8741 47.8479 28.5494 48.722 27.9251C49.6211 27.3007 50.0457 26.6014 50.0457 25.7773Z" fill="#F21616"/>
<path d="M68.994 18.1101H74.9129V21.0821C74.9129 21.0821 67.3207 21.0821 66.6714 21.157C66.022 21.2319 65.0231 21.8063 64.5236 22.4057C64.0241 23.0051 63.7744 23.7294 63.7744 24.6284V31.2716H58.4298V18.3848H63.7494V20.6575C63.9741 20.3328 64.2489 19.9832 64.5735 19.6585C64.9232 19.3339 65.4976 18.9842 66.2968 18.6346C67.1209 18.2849 67.995 18.1101 68.994 18.1101Z" fill="#F21616"/>
<path d="M94.2792 28.025H94.9785V31.5463H90.608C89.4092 31.5463 88.7349 30.947 88.5351 29.7732C88.1355 30.2477 87.4612 30.7222 86.4872 31.1468C85.5132 31.5713 84.1896 31.7711 82.5163 31.7711H82.2166C80.1687 31.7711 78.6452 31.3715 77.6463 30.5723C76.6473 29.7732 76.1728 28.7742 76.1728 27.5504V27.3756C76.1728 26.2018 76.5724 25.3027 77.4215 24.6784C78.2706 24.079 79.6692 23.6794 81.6172 23.5046L87.5861 22.9551C88.1105 22.8802 88.3853 22.6555 88.3853 22.2808C88.3853 22.0561 88.3353 21.9062 88.2354 21.7564C88.1355 21.6315 87.8108 21.5066 87.2864 21.4067C86.7619 21.2819 85.9877 21.2069 85.0137 21.2069L76.1728 21.2319V18.235H85.5631C87.0117 18.235 88.2604 18.3099 89.2843 18.4847C90.3333 18.6596 91.1075 18.8843 91.6569 19.1341C92.2063 19.4088 92.6309 19.7335 92.9306 20.133C93.2553 20.5576 93.4301 20.9072 93.505 21.2319C93.555 21.5566 93.6049 21.9562 93.6049 22.4057V27.3756C93.6049 27.8002 93.8297 28.025 94.2792 28.025ZM88.3853 25.7773V25.3777L83.2405 26.1768C82.5163 26.2767 82.0168 26.4266 81.7171 26.6014C81.4424 26.7762 81.2925 27.026 81.2925 27.3756V27.4006C81.2925 27.8002 81.4674 28.1498 81.842 28.4495C82.2166 28.7242 82.816 28.8741 83.6651 28.8741C85.0387 28.8741 86.1875 28.5494 87.0616 27.9251C87.9607 27.3007 88.3853 26.6014 88.3853 25.7773Z" fill="#F21616"/>
<path d="M96.7694 18.6845H102.389V20.8323C104.162 19.209 106.435 18.4098 109.207 18.4098H109.406C111.629 18.4098 113.302 18.8843 114.401 19.8333C115.525 20.8074 116.075 21.9562 116.075 23.3298V31.2716H110.331V25.053C110.331 24.054 110.031 23.2798 109.431 22.7304C108.807 22.1809 107.883 21.9062 106.659 21.9062C105.386 21.9062 104.362 22.2309 103.587 22.8552C102.838 23.4796 102.439 24.3038 102.439 25.3277V31.2716H96.7694V18.6845Z" fill="#F21616"/>
<path d="M134.355 13.7646H140.074V31.1967H134.405V29.2737C134.28 29.4485 134.056 29.6233 133.781 29.8481C133.481 30.0479 133.082 30.2976 132.557 30.5474C132.008 30.8221 131.333 31.0469 130.459 31.2217C129.585 31.3965 128.636 31.4964 127.612 31.4964H127.288C124.391 31.4964 122.218 30.897 120.794 29.6733C119.346 28.4745 118.646 26.9011 118.646 25.003V24.5535C118.646 22.7054 119.321 21.2069 120.669 20.0331C122.043 18.8593 124.166 18.2849 127.063 18.2849H127.462C130.409 18.2849 132.707 18.9592 134.355 20.2829V13.7646ZM134.355 24.8282C134.355 23.9541 133.881 23.1799 132.957 22.5556C132.008 21.9062 130.759 21.5816 129.161 21.5816H129.036C127.362 21.5816 126.189 21.8812 125.489 22.5056C124.815 23.105 124.465 23.8792 124.465 24.8282V24.9032C124.465 25.7773 124.84 26.5515 125.614 27.2008C126.364 27.8501 127.537 28.1748 129.086 28.1748H129.211C130.809 28.1748 132.058 27.8501 132.982 27.2008C133.906 26.5515 134.355 25.7773 134.355 24.9032V24.8282Z" fill="#F21616"/>
<path d="M160.227 28.025H160.927V31.5463H156.556C155.357 31.5463 154.683 30.947 154.483 29.7732C154.084 30.2477 153.409 30.7222 152.435 31.1468C151.461 31.5713 150.138 31.7711 148.464 31.7711H148.165C146.117 31.7711 144.593 31.3715 143.594 30.5723C142.595 29.7732 142.121 28.7742 142.121 27.5504V27.3756C142.121 26.2018 142.52 25.3027 143.37 24.6784C144.219 24.079 145.617 23.6794 147.565 23.5046L153.534 22.9551C154.059 22.8802 154.333 22.6555 154.333 22.2808C154.333 22.0561 154.283 21.9062 154.183 21.7564C154.084 21.6315 153.759 21.5066 153.234 21.4067C152.71 21.2819 151.936 21.2069 150.962 21.2069L142.121 21.2319V18.235H151.511C152.96 18.235 154.208 18.3099 155.232 18.4847C156.281 18.6596 157.055 18.8843 157.605 19.1341C158.154 19.4088 158.579 19.7335 158.879 20.133C159.203 20.5576 159.378 20.9072 159.453 21.2319C159.503 21.5566 159.553 21.9562 159.553 22.4057V27.3756C159.553 27.8002 159.778 28.025 160.227 28.025ZM154.333 25.7773V25.3777L149.189 26.1768C148.464 26.2767 147.965 26.4266 147.665 26.6014C147.39 26.7762 147.241 27.026 147.241 27.3756V27.4006C147.241 27.8002 147.415 28.1498 147.79 28.4495C148.165 28.7242 148.764 28.8741 149.613 28.8741C150.987 28.8741 152.136 28.5494 153.01 27.9251C153.909 27.3007 154.333 26.6014 154.333 25.7773Z" fill="#F21616"/>
<path d="M169.835 14.6137H165.24L162.942 11.5918H167.912L169.835 14.6137Z" fill="#F21616"/>
<path d="M180.885 31.6962C174.991 31.6962 172.069 30.2227 172.069 27.2258V27.0759H177.938C177.938 28.2247 179.112 28.7992 181.46 28.7992H181.51C182.484 28.7992 183.258 28.7242 183.807 28.5994C184.357 28.4745 184.706 28.3496 184.856 28.1998C184.981 28.025 185.056 27.8501 185.056 27.6004V27.5504C185.056 27.2008 184.856 26.9261 184.482 26.7513C184.082 26.5764 183.283 26.4765 182.034 26.4516L179.587 26.4016C178.163 26.3766 176.939 26.2518 175.915 26.002C174.916 25.7773 174.142 25.4526 173.618 25.078C173.118 24.6784 172.744 24.2788 172.519 23.8542C172.294 23.4297 172.194 22.9801 172.194 22.4806V22.3308C172.194 21.9062 172.244 21.5066 172.344 21.157C172.469 20.8323 172.694 20.4577 173.068 20.1081C173.443 19.7584 173.918 19.4587 174.542 19.209C175.141 18.9842 175.99 18.7844 177.064 18.6346C178.138 18.4847 179.412 18.4098 180.86 18.4098H181.884C187.628 18.4098 190.501 19.7085 190.501 22.3558V22.5306H184.681C184.656 22.3558 184.607 22.2309 184.532 22.106C184.482 22.0061 184.332 21.8563 184.132 21.7064C183.932 21.5566 183.583 21.4567 183.108 21.3568C182.609 21.2819 182.009 21.2319 181.31 21.2319H181.285C179.986 21.2319 179.112 21.3068 178.663 21.4567C178.238 21.5816 178.013 21.8313 178.013 22.1809V22.2059C178.013 22.5306 178.213 22.7803 178.613 22.9302C179.037 23.105 179.786 23.2049 180.885 23.2299L183.333 23.2798C185.406 23.3048 187.004 23.4796 188.128 23.8043C189.277 24.1289 190.051 24.5535 190.426 25.078C190.8 25.6024 191 26.3267 191 27.2258V27.3756C191 28 190.875 28.5744 190.625 29.0489C190.376 29.5234 189.951 29.973 189.327 30.3975C188.702 30.8221 187.778 31.1468 186.53 31.3715C185.281 31.5963 183.757 31.6962 181.934 31.6962H180.885Z" fill="#F21616"/>
<path d="M9.6676 29.5725C10.4816 30.1937 11.3218 30.7368 12.2649 31.1694C12.6065 31.326 13.0054 31.2526 13.287 31.0038L15.4727 29.0723C15.8278 28.7585 15.9139 28.2386 15.679 27.8271L7.007 12.6372C6.62641 11.9706 7.1078 11.1414 7.87544 11.1414H18.3514C18.6981 11.1414 19.0201 11.321 19.2023 11.616L24.3781 19.9979C24.4187 20.0636 24.5153 20.0605 24.5515 19.9923L28.9737 11.6721C29.1472 11.3455 29.4869 11.1414 29.8567 11.1414H33.0555C33.3235 11.1414 33.5804 11.0338 33.7683 10.8427L34.0763 10.5296C34.3904 10.2103 34.4539 9.72112 34.2317 9.33223L33.1803 7.49232C33.1803 7.49232 32.4667 6.06521 32.1099 5.70843C31.7532 5.35166 31.0396 5.70843 31.0396 5.70843L26.7583 7.51373C26.7583 7.51373 24.7413 6.1594 23.5631 5.69559L22.8711 0.779201C22.7963 0.333943 22.4035 0 21.936 0H14.4553C13.9877 0 13.595 0.333943 13.5202 0.779201L12.8282 5.69559C11.65 6.1594 10.6401 6.79018 9.6676 7.51373L5.01084 5.65848C4.5994 5.49151 4.09445 5.65848 3.87003 6.06664L0.129663 12.4858C-0.113461 12.8939 -0.00124986 13.3948 0.354085 13.6731L4.30017 16.6972L4.16926 18.5524L4.30017 20.352L0.354085 23.4317C-0.00124986 23.71 -0.113461 24.2109 0.129663 24.619L3.87003 31.0382C4.09445 31.4463 4.5994 31.5948 5.01084 31.4463L9.6676 29.5725Z" fill="#F21616"/>
</svg>
