<svg width="26" height="27" viewBox="0 0 26 27" fill="none" xmlns="http://www.w3.org/2000/svg">
<path d="M9.65714 0C12.2184 0 14.6747 1.05658 16.4858 2.9373C18.2968 4.81802 19.3143 7.36883 19.3143 10.0286C19.3143 12.5126 18.4377 14.796 16.9966 16.5549L17.3977 16.9714H18.5714L26 24.6857L23.7714 27L16.3429 19.2857V18.0669L15.9417 17.6503C14.248 19.1469 12.0491 20.0571 9.65714 20.0571C7.09591 20.0571 4.63958 19.0006 2.82851 17.1198C1.01745 15.2391 0 12.6883 0 10.0286C0 7.36883 1.01745 4.81802 2.82851 2.9373C4.63958 1.05658 7.09591 0 9.65714 0ZM9.65714 3.08571C5.94286 3.08571 2.97143 6.17143 2.97143 10.0286C2.97143 13.8857 5.94286 16.9714 9.65714 16.9714C13.3714 16.9714 16.3429 13.8857 16.3429 10.0286C16.3429 6.17143 13.3714 3.08571 9.65714 3.08571Z" fill="#80838C"/>
</svg>
