<svg width="17" height="20" viewBox="0 0 17 20" fill="none" xmlns="http://www.w3.org/2000/svg">
<path d="M6.61111 18.0952H10.3889C10.3889 19.1429 9.53889 20 8.5 20C7.46111 20 6.61111 19.1429 6.61111 18.0952ZM17 16.1905V17.1429H0V16.1905L1.88889 14.2857V8.57143C1.88889 5.61905 3.77778 3.04762 6.61111 2.19048V1.90476C6.61111 0.857143 7.46111 0 8.5 0C9.53889 0 10.3889 0.857143 10.3889 1.90476V2.19048C13.2222 3.04762 15.1111 5.61905 15.1111 8.57143V14.2857L17 16.1905ZM13.2222 8.57143C13.2222 5.90476 11.1444 3.80952 8.5 3.80952C5.85556 3.80952 3.77778 5.90476 3.77778 8.57143V15.2381H13.2222V8.57143Z" fill="#373740"/>
</svg>
