<svg width="16" height="11" viewBox="0 0 16 11" fill="none" xmlns="http://www.w3.org/2000/svg">
<path d="M8 3.3C8.57865 3.3 9.13361 3.53178 9.54278 3.94436C9.95195 4.35694 10.1818 4.91652 10.1818 5.5C10.1818 6.08348 9.95195 6.64306 9.54278 7.05564C9.13361 7.46822 8.57865 7.7 8 7.7C7.42135 7.7 6.86639 7.46822 6.45722 7.05564C6.04805 6.64306 5.81818 6.08348 5.81818 5.5C5.81818 4.91652 6.04805 4.35694 6.45722 3.94436C6.86639 3.53178 7.42135 3.3 8 3.3ZM8 0C11.6364 0 14.7418 2.28067 16 5.5C14.7418 8.71933 11.6364 11 8 11C4.36364 11 1.25818 8.71933 0 5.5C1.25818 2.28067 4.36364 0 8 0ZM1.58545 5.5C2.78545 7.964 5.26545 9.53333 8 9.53333C10.7345 9.53333 13.2145 7.964 14.4145 5.5C13.2145 3.036 10.7345 1.46667 8 1.46667C5.26545 1.46667 2.78545 3.036 1.58545 5.5Z" fill="#80838C"/>
</svg>
